<svg xmlns="http://www.w3.org/2000/svg" viewBox="0 0 320 80" fill="none">
  <!-- Icon mark: blue rounded square -->
  <g transform="translate(8 6)">
    <rect x="0" y="0" width="68" height="68" rx="14" fill="#1565C0"/>
    <rect x="0" y="0" width="68" height="32" rx="14" fill="white" fill-opacity="0.06"/>

    <!-- Crown (gold) centered in top 32px of icon -->
    <!-- Left prong -->
    <polygon points="11,28 17,15 23,28" fill="#FFC107"/>
    <!-- Center prong (tallest) -->
    <polygon points="25,28 34,5 43,28" fill="#FFC107"/>
    <!-- Right prong -->
    <polygon points="45,28 51,15 57,28" fill="#FFC107"/>
    <!-- Crown base band -->
    <rect x="9" y="26" width="50" height="9" rx="2.5" fill="#FFC107"/>
    <!-- Crown jewels -->
    <circle cx="19" cy="30" r="2" fill="#E53935"/>
    <circle cx="34" cy="30" r="2" fill="#E53935"/>
    <circle cx="49" cy="30" r="2" fill="#E53935"/>

    <!-- Letter B (white stroke) -->
    <g stroke="white" stroke-width="5.5" stroke-linecap="round" stroke-linejoin="round" fill="none">
      <!-- Spine -->
      <path d="M 15 38 L 15 63"/>
      <!-- Upper bowl -->
      <path d="M 15 38 L 30 38 Q 43 38 43 46 Q 43 54 30 54 L 15 54"/>
      <!-- Lower bowl -->
      <path d="M 15 54 L 33 54 Q 48 54 48 60 L 15 60"/>
    </g>
  </g>

  <!-- Wordmark: "betcheza" for light backgrounds (dark blue) -->
  <g transform="translate(90 0)">
    <text x="0" y="52"
      font-family="ui-sans-serif,system-ui,-apple-system,'Segoe UI',Roboto,'Helvetica Neue',Arial"
      font-weight="900" font-size="42" letter-spacing="-1.5" fill="#0D47A1">betch<tspan fill="#1565C0">e</tspan>za</text>
    <!-- Blue underline pip -->
    <rect x="2" y="60" width="50" height="3" rx="1.5" fill="#1565C0"/>
    <!-- Tagline -->
    <text x="58" y="65"
      font-family="ui-sans-serif,system-ui"
      font-weight="600" font-size="11" letter-spacing="2.5" fill="#64748B">SMART · BETS · DAILY</text>
  </g>
</svg>
